<?xml version="1.0" standalone="no"?>
<!DOCTYPE svg PUBLIC "-//W3C//DTD SVG 20010904//EN"
 "http://www.w3.org/TR/2001/REC-SVG-20010904/DTD/svg10.dtd">
<svg version="1.0" xmlns="http://www.w3.org/2000/svg"
 width="512.000000pt" height="512.000000pt" viewBox="0 0 512.000000 512.000000"
 preserveAspectRatio="xMidYMid meet">

<g transform="translate(0.000000,512.000000) scale(0.100000,-0.100000)"
fill="currentColor" stroke="none">
<path d="M2471 4995 c-150 -113 -344 -201 -546 -247 -80 -19 -131 -21 -482
-25 -216 -3 -393 -6 -393 -7 0 -1 -29 -196 -64 -432 -155 -1030 -266 -1878
-266 -2032 0 -139 172 -322 528 -563 l132 -90 -15 -27 c-8 -15 -138 -216 -289
-447 -150 -231 -273 -421 -271 -423 1 -1 167 18 369 44 202 25 370 43 373 41
3 -3 67 -170 142 -372 l138 -366 274 503 275 503 49 -5 c28 -3 88 -5 135 -5
47 0 107 2 135 5 l49 5 275 -503 274 -503 138 366 c75 202 140 369 143 372 3
3 171 -15 373 -40 202 -26 368 -45 369 -44 1 1 -122 191 -272 422 -151 231
-281 432 -289 447 l-15 27 132 90 c356 241 528 424 528 563 0 154 -113 1016
-266 2032 -35 235 -64 430 -64 431 0 2 -174 5 -387 7 -415 5 -462 10 -643 68
-105 34 -298 135 -393 205 -48 36 -88 65 -90 64 -1 0 -40 -29 -86 -64z m155
-181 c146 -98 359 -185 553 -226 81 -17 146 -21 424 -25 325 -5 327 -5 332
-27 7 -34 140 -941 184 -1261 57 -409 98 -747 112 -906 l12 -137 -26 -44 c-80
-138 -461 -407 -1017 -720 -408 -230 -498 -268 -640 -268 -138 0 -220 34 -594
242 -569 317 -981 606 -1063 745 l-26 45 12 137 c14 163 57 510 112 906 46
331 177 1229 184 1261 5 22 7 22 332 27 365 5 424 13 629 82 134 45 338 151
410 214 1 1 32 -20 70 -45z m-922 -3408 c100 -58 253 -143 341 -190 88 -47
165 -89 171 -93 8 -5 -46 -114 -172 -343 -101 -184 -186 -334 -190 -333 -4 1
-51 118 -104 260 -91 243 -98 258 -121 256 -13 -2 -132 -16 -263 -33 -132 -16
-240 -29 -241 -27 -3 3 389 606 394 607 2 0 85 -47 185 -104z m2097 -199 c108
-166 195 -303 195 -304 -1 -1 -103 11 -226 27 -124 15 -243 30 -264 32 l-39 3
-97 -258 c-53 -142 -100 -259 -104 -260 -4 -1 -89 149 -190 333 -126 229 -180
338 -172 343 6 4 92 51 190 104 99 53 252 138 340 189 89 52 163 94 166 94 3
-1 93 -137 201 -303z"/>
<path d="M2462 4610 c-148 -85 -358 -157 -557 -191 -38 -7 -185 -15 -325 -18
l-255 -6 -22 -150 c-113 -757 -239 -1686 -258 -1906 l-6 -75 68 -65 c189 -178
622 -453 1184 -752 230 -123 318 -118 594 30 529 284 938 545 1119 714 l77 72
-6 76 c-19 220 -145 1149 -258 1906 l-22 150 -260 6 c-143 4 -289 12 -325 18
-211 38 -431 116 -588 210 -29 17 -58 31 -65 30 -7 -1 -50 -23 -95 -49z m198
-181 c255 -124 476 -176 798 -186 117 -3 202 -10 202 -15 0 -6 38 -274 84
-596 90 -623 166 -1206 166 -1273 0 -46 -5 -51 -148 -160 -178 -135 -506 -338
-842 -521 -293 -160 -275 -152 -360 -153 l-75 0 -182 98 c-458 246 -836 481
-1033 644 -54 44 -59 52 -59 88 -1 93 78 691 241 1808 l11 77 139 0 c319 0
614 65 858 189 52 27 97 48 100 47 3 0 48 -22 100 -47z"/>
<path d="M2465 4296 c-27 -13 -60 -34 -72 -47 -24 -28 -590 -1105 -641 -1222
-91 -209 -95 -495 -11 -706 205 -515 818 -717 1286 -425 142 88 270 237 338
390 87 196 98 464 29 674 -28 82 -624 1236 -664 1284 -33 39 -114 76 -170 76
-26 0 -66 -10 -95 -24z m132 -151 c29 -20 610 -1137 648 -1245 28 -81 30 -93
29 -240 0 -140 -3 -163 -27 -235 -38 -115 -91 -199 -182 -290 -91 -91 -175
-144 -290 -182 -71 -23 -96 -26 -215 -26 -119 0 -144 3 -215 26 -114 38 -198
90 -290 182 -141 140 -202 281 -212 485 -7 136 12 247 58 349 72 159 603 1163
622 1176 27 19 47 19 74 0z"/>
<path d="M2320 3200 l0 -160 -160 0 -160 0 0 -240 0 -240 160 0 160 0 0 -160
0 -160 240 0 240 0 0 160 0 160 160 0 160 0 0 240 0 240 -160 0 -160 0 0 160
0 160 -240 0 -240 0 0 -160z m320 -160 l0 -160 160 0 160 0 0 -80 0 -80 -160
0 -160 0 0 -160 0 -160 -80 0 -80 0 0 160 0 160 -160 0 -160 0 0 80 0 80 160
0 160 0 0 160 0 160 80 0 80 0 0 -160z"/>
</g>
</svg>
