<?xml version="1.0" standalone="no"?>
<!DOCTYPE svg PUBLIC "-//W3C//DTD SVG 20010904//EN"
 "http://www.w3.org/TR/2001/REC-SVG-20010904/DTD/svg10.dtd">
<svg version="1.0" xmlns="http://www.w3.org/2000/svg"
 width="512.000000pt" height="512.000000pt" viewBox="0 0 512.000000 512.000000"
 preserveAspectRatio="xMidYMid meet">

<g transform="translate(0.000000,512.000000) scale(0.100000,-0.100000)"
fill="currentColor" stroke="none">
<path d="M1923 4863 c-88 -30 -163 -118 -277 -321 -103 -183 -124 -198 -355
-247 -242 -51 -323 -90 -381 -181 -53 -84 -60 -167 -34 -392 19 -162 14 -228
-20 -285 -13 -23 -71 -93 -128 -155 -198 -213 -236 -329 -158 -488 31 -64 58
-99 191 -247 134 -149 141 -171 114 -408 -32 -285 -3 -390 135 -480 l24 -16
-219 -379 c-121 -208 -221 -391 -223 -407 -5 -34 21 -75 54 -83 16 -4 137 23
355 81 181 49 331 86 332 84 2 -2 43 -150 90 -329 74 -278 90 -328 112 -347
31 -27 65 -29 94 -6 11 10 112 178 225 373 l204 355 60 16 c33 10 128 47 212
84 227 100 247 100 492 -12 66 -29 148 -61 183 -70 l63 -17 198 -346 c109
-190 211 -357 226 -372 45 -47 106 -30 127 35 6 17 47 167 91 331 44 164 82
301 85 304 3 3 150 -34 328 -81 177 -48 331 -87 343 -87 26 0 62 33 70 64 7
30 17 12 -237 447 -146 251 -207 365 -198 367 8 3 39 30 70 61 92 91 105 174
74 457 -24 212 -15 238 142 406 149 162 203 257 203 358 0 107 -47 191 -205
366 -60 65 -117 139 -128 164 -23 51 -26 153 -8 275 16 109 14 255 -6 315 -22
68 -86 138 -158 174 -31 15 -107 38 -168 52 -285 62 -310 72 -366 148 -21 28
-62 94 -91 147 -121 224 -218 308 -355 308 -72 1 -132 -18 -305 -94 -229 -101
-255 -101 -501 11 -185 84 -281 101 -376 67z m241 -187 c44 -19 118 -51 164
-71 45 -20 118 -44 161 -53 75 -15 81 -15 162 5 47 11 141 46 209 78 69 31
153 64 188 73 62 17 63 16 106 -6 51 -28 81 -67 177 -234 141 -245 186 -275
513 -343 139 -28 202 -57 233 -104 20 -29 23 -47 23 -120 0 -47 -5 -117 -11
-156 -6 -38 -10 -115 -11 -170 0 -159 29 -215 226 -432 94 -103 125 -156 126
-211 0 -65 -22 -98 -193 -288 -152 -168 -176 -246 -151 -483 38 -360 33 -366
-339 -445 -238 -50 -289 -93 -448 -375 -41 -73 -79 -127 -108 -152 -39 -35
-50 -39 -95 -39 -51 0 -96 16 -291 103 -211 95 -287 90 -560 -30 -117 -52
-163 -68 -210 -71 -58 -4 -61 -3 -105 36 -30 26 -67 79 -109 153 -158 280
-210 324 -443 374 -206 45 -240 55 -282 77 -79 44 -90 109 -62 371 28 256 5
313 -218 556 -94 103 -126 158 -126 215 0 54 28 101 127 210 190 209 224 273
225 416 1 47 -5 132 -12 190 -7 58 -11 140 -9 182 4 65 8 81 29 103 39 42 87
61 221 90 190 40 239 54 302 88 78 41 127 100 225 269 92 160 112 186 162 217
45 28 95 23 204 -23z m-839 -3111 c138 -30 196 -55 234 -104 15 -20 63 -98
106 -173 73 -129 136 -209 197 -254 l26 -19 -141 -244 -140 -244 -73 269 c-81
305 -80 301 -105 314 -30 17 -52 12 -321 -60 -144 -39 -263 -68 -265 -66 -8 8
342 606 355 606 7 0 64 -11 127 -25z m2783 -277 c95 -165 171 -303 168 -305
-2 -3 -121 27 -264 66 -260 71 -286 76 -317 65 -26 -10 -39 -46 -110 -316 -38
-142 -71 -258 -74 -258 -3 0 -68 107 -143 238 -137 236 -138 237 -115 251 58
38 127 127 204 262 94 165 124 202 190 231 39 17 241 66 278 67 6 0 88 -135
183 -301z"/>
<path d="M2375 4165 c-133 -21 -234 -53 -360 -115 -370 -182 -620 -518 -687
-924 -16 -95 -15 -303 1 -396 91 -520 503 -935 1019 -1025 110 -19 316 -19
428 0 306 54 595 233 784 486 109 146 199 357 231 539 16 93 17 301 1 396 -53
319 -226 607 -481 800 -100 76 -293 174 -401 204 -175 48 -371 61 -535 35z
m331 -156 c233 -32 432 -130 606 -297 440 -423 446 -1116 13 -1547 -136 -135
-298 -229 -491 -282 -91 -25 -114 -28 -274 -28 -160 0 -183 3 -275 28 -657
181 -996 899 -710 1504 58 123 105 192 195 287 247 261 590 383 936 335z"/>
<path d="M3230 3443 c-8 -3 -201 -190 -427 -416 l-413 -411 -237 236 c-161
159 -248 239 -267 244 -56 14 -107 -40 -93 -97 4 -13 131 -149 285 -301 256
-257 280 -278 312 -278 33 0 65 30 488 453 402 403 452 457 452 484 0 45 -9
62 -41 78 -30 16 -35 17 -59 8z"/>
</g>
</svg>
